<?xml version="1.0" encoding="iso-8859-1"?>
<!-- Generator: Adobe Illustrator 19.0.0, SVG Export Plug-In . SVG Version: 6.00 Build 0)  -->
<svg version="1.1" id="Capa_1" xmlns="http://www.w3.org/2000/svg" xmlns:xlink="http://www.w3.org/1999/xlink" x="0px" y="0px"
	 viewBox="0 0 512 512" style="enable-background:new 0 0 512 512;" xml:space="preserve">
<g>
	<g>
		<g>
			<path d="M468.56,150.125c-0.023-0.05-0.013-0.109-0.035-0.159L404.866,14.708C400.63,5.745,391.614,0.021,381.7,0H130.3
				c-9.911,0.021-18.927,5.741-23.167,14.7L43.475,149.967c-0.023,0.05-0.013,0.109-0.035,0.16c-0.501,1.09-0.765,2.274-0.773,3.473
				v34.133c0.046,15.521,10.568,29.053,25.6,32.922v248.678c0.028,23.553,19.114,42.639,42.667,42.667h290.133
				c23.553-0.028,42.639-19.114,42.667-42.667V220.655c15.031-3.869,25.554-17.4,25.6-32.922V153.6
				C469.326,152.4,469.062,151.215,468.56,150.125z M381.7,17.067c3.303,0.005,6.308,1.913,7.717,4.9l57.935,123.1h-31.71
				l-45.177-128H381.7z M352.358,17.067l45.177,128H365.16l-30.118-128H352.358z M401.067,162.133v25.6
				c0,9.426-7.641,17.067-17.067,17.067s-17.067-7.641-17.067-17.067v-25.6H401.067z M317.506,17.067l30.118,128h-32.836
				l-15.059-128H317.506z M349.867,162.133v25.6c0,9.426-7.641,17.067-17.067,17.067s-17.067-7.641-17.067-17.067v-25.6H349.867z
				 M264.533,17.067h18.013l15.058,128h-33.071V17.067z M264.533,162.133h34.133v25.6c0,9.426-7.641,17.067-17.067,17.067
				c-9.426,0-17.067-7.641-17.067-17.067V162.133z M229.454,17.067h18.013v128h-33.071L229.454,17.067z M213.333,162.133h34.133
				v25.6c0,9.426-7.641,17.067-17.067,17.067c-9.426,0-17.067-7.641-17.067-17.067V162.133z M212.271,17.067l-15.058,128h-32.836
				l30.118-128H212.271z M196.267,162.133v25.6c0,9.426-7.641,17.067-17.067,17.067s-17.067-7.641-17.067-17.067v-25.6H196.267z
				 M176.957,17.067l-30.118,128h-32.375l45.177-128H176.957z M145.067,162.133v25.6c0,9.426-7.641,17.067-17.067,17.067
				s-17.067-7.641-17.067-17.067v-25.6H145.067z M122.583,21.958c1.413-2.983,4.416-4.887,7.717-4.891h11.235l-45.177,128h-31.71
				L122.583,21.958z M76.8,204.8c-9.426,0-17.067-7.641-17.067-17.067v-25.6h34.133v25.6C93.867,197.159,86.226,204.8,76.8,204.8z
				 M426.667,469.333c-0.015,14.132-11.468,25.585-25.6,25.6H110.933c-14.132-0.015-25.585-11.468-25.6-25.6V220.655
				c6.625-1.728,12.574-5.417,17.067-10.583c6.399,7.485,15.753,11.795,25.6,11.795s19.201-4.31,25.6-11.795
				c6.399,7.485,15.753,11.795,25.6,11.795s19.201-4.31,25.6-11.795c6.399,7.485,15.753,11.795,25.6,11.795
				c9.847,0,19.201-4.31,25.6-11.795c6.399,7.485,15.753,11.795,25.6,11.795c9.847,0,19.201-4.31,25.6-11.795
				c6.399,7.485,15.753,11.795,25.6,11.795s19.201-4.31,25.6-11.795c6.399,7.485,15.753,11.795,25.6,11.795s19.201-4.31,25.6-11.795
				c4.493,5.167,10.441,8.855,17.067,10.583V469.333z M452.267,187.733c-0.011,9.421-7.645,17.056-17.067,17.067
				c-9.421-0.011-17.056-7.645-17.067-17.067v-25.6h34.133V187.733z"/>
			<path d="M341.333,282.103V281.6c-0.015-14.132-11.468-25.585-25.6-25.6h-25.6c-14.132,0.015-25.585,11.468-25.6,25.6h-17.067
				c-0.015-14.132-11.468-25.585-25.6-25.6h-25.6c-14.132,0.015-25.585,11.468-25.6,25.6v0.503
				c-36.573,4.083-65.107,33.54-68.025,70.224s20.602,70.281,56.07,80.093c35.468,9.812,72.911-6.919,89.262-39.887h16.05
				c16.352,32.968,53.794,49.7,89.263,39.888s58.988-43.409,56.071-80.093C406.441,315.643,377.907,286.186,341.333,282.103z
				 M290.133,273.067h25.6c4.711,0.005,8.529,3.823,8.533,8.533H281.6C281.605,276.889,285.422,273.071,290.133,273.067z
				 M196.267,273.067h25.6c4.711,0.005,8.529,3.823,8.533,8.533h-42.667C187.738,276.889,191.556,273.071,196.267,273.067z
				 M332.8,418.133c-24.353,0.055-46.28-14.737-55.35-37.338c-1.306-3.22-4.433-5.328-7.908-5.329h-27.083
				c-3.475,0.001-6.603,2.109-7.908,5.329c-11.268,27.84-41.457,42.981-70.509,35.364c-29.052-7.618-47.927-35.625-44.084-65.412
				c3.843-29.787,29.209-52.086,59.242-52.081h153.6c32.99,0,59.733,26.744,59.733,59.733S365.79,418.133,332.8,418.133z"/>
			<path d="M204.8,349.867h-17.067V332.8c0-4.713-3.82-8.533-8.533-8.533s-8.533,3.821-8.533,8.533v17.067H153.6
				c-4.713,0-8.533,3.82-8.533,8.533s3.82,8.533,8.533,8.533h17.067V384c0,4.713,3.82,8.533,8.533,8.533s8.533-3.82,8.533-8.533
				v-17.067H204.8c4.713,0,8.533-3.82,8.533-8.533S209.513,349.867,204.8,349.867z"/>
			<path d="M313.233,348.1c-1.6-1.601-3.77-2.5-6.033-2.5s-4.434,0.899-6.033,2.5l-8.533,8.533
				c-2.178,2.151-3.037,5.304-2.251,8.262c0.786,2.958,3.097,5.269,6.055,6.055s6.111-0.073,8.262-2.251l8.533-8.533
				c1.601-1.6,2.5-3.77,2.5-6.033S314.834,349.7,313.233,348.1z"/>
			<path d="M347.366,318.234c-1.6-1.601-3.77-2.5-6.033-2.5s-4.433,0.899-6.033,2.5l-8.533,8.533
				c-2.178,2.151-3.037,5.304-2.251,8.262c0.786,2.958,3.097,5.269,6.055,6.055s6.111-0.073,8.262-2.251l8.533-8.533
				c1.601-1.6,2.5-3.77,2.5-6.033C349.866,322.004,348.967,319.833,347.366,318.234z"/>
			<path d="M326.767,377.967l-8.533,8.533c-2.188,2.149-3.055,5.307-2.27,8.271c0.785,2.965,3.1,5.28,6.065,6.065
				c2.965,0.785,6.122-0.082,8.271-2.27l8.533-8.533c3.281-3.341,3.256-8.701-0.054-12.012S330.108,374.686,326.767,377.967z"/>
			<path d="M360.9,348.1l-8.533,8.533c-2.188,2.149-3.055,5.307-2.27,8.271c0.785,2.965,3.1,5.28,6.065,6.065
				c2.965,0.785,6.122-0.082,8.271-2.27l8.533-8.533c3.281-3.341,3.256-8.701-0.054-12.012
				C369.601,344.844,364.241,344.82,360.9,348.1z"/>
		</g>
	</g>
</g>
<g>
</g>
<g>
</g>
<g>
</g>
<g>
</g>
<g>
</g>
<g>
</g>
<g>
</g>
<g>
</g>
<g>
</g>
<g>
</g>
<g>
</g>
<g>
</g>
<g>
</g>
<g>
</g>
<g>
</g>
</svg>
